inDegrees=yes
name=ik_lifting_orientations
DataType=double
version=3
OpenSimVersion=4.5-2024-01-10-34fd6af
endheader
time	pelvis_tilt	pelvis_list	pelvis_rotation	pelvis_tx	pelvis_ty	pelvis_tz	hip_flexion_r	hip_adduction_r	hip_rotation_r	knee_angle_r	knee_angle_r_beta	ankle_angle_r	subtalar_angle_r	mtp_angle_r	hip_flexion_l	hip_adduction_l	hip_rotation_l	knee_angle_l	knee_angle_l_beta	ankle_angle_l	subtalar_angle_l	mtp_angle_l	lumbar_extension	lumbar_bending	lumbar_rotation	arm_flex_r	arm_add_r	arm_rot_r	elbow_flex_r	pro_sup_r	wrist_flex_r	wrist_dev_r	arm_flex_l	arm_add_l	arm_rot_l	elbow_flex_l	pro_sup_l	wrist_flex_l	wrist_dev_l
0.57	0.008278653549614805	0.009699978855579473	2.575057652921648	0	0.9399999999999999	0	44.84741440034864	-10.00030112559007	0	60.10021982997881	1.048946717205517	-5.00002103239309	0	0	44.84741440034864	-10.00030112559007	0	60.10021982997881	1.048946717205517	-5.00002103239309	0	0	-0.01339576970431624	-0.01078064316668458	0.002846351777278748	0.1430297189355246	-0.9810711255940938	-0.1272057108309448	1.289813157033389	44.99980363291275	0	0	0	-14.13437672720051	0	75.10701870778668	44.99980363291275	0	0
0.58	0.006862088349696	0.002461664336873307	2.576461568639876	0	0.9399999999999999	0	44.85055322995289	-10.00028180988517	0	60.09859316837266	1.048918326604674	-5.000019338703856	0	0	44.85055322995289	-10.00028180988517	0	60.09859316837266	1.048918326604674	-5.000019338703856	0	0	0.003652389524066932	0.001324760957840024	-0.001250692958539149	0.129441702151914	-0.9888581479211671	-0.1281323003580976	1.275144264171276	44.9998139372457	0	0	0	-14.14369716024126	0	75.10482086482348	44.9998139372457	0	0
0.59	0.005434230416594152	-0.001418497439236063	2.564426686421725	0	0.9399999999999999	0	44.85352938256656	-10.00026405464797	0	60.09704623930095	1.048891327599078	-5.000017800289696	0	0	44.85352938256656	-10.00026405464797	0	60.09704623930095	1.048891327599078	-5.000017800289696	0	0	-0.002402347824559245	-0.0003653096343251587	0.006197830016237254	0.1325670164077036	-0.9839460302256323	-0.1107323074374861	1.290293297365382	44.99982349116268	0	0	0	-14.15259217880519	0	75.10273692979963	44.99982349116268	0	0
0.6	-0.005955506312536819	-0.002032904496677781	2.575167981234856	0	0.9399999999999999	0	44.85728631891286	-10.00024265795679	0	60.09508479636663	1.048857093961784	-5.000015979690305	0	0	44.85728631891286	-10.00024265795679	0	60.09508479636663	1.048857093961784	-5.000015979690305	0	0	0.009262674955780916	0.002278938534175469	0.001851656553868377	0.1335852552261082	-0.9830629457137157	-0.1261405479617903	1.289395125066459	44.99983515489492	0	0	0	-14.1639323649005	0	75.10010628081842	44.99983515489492	0	0
0.61	0.006214080216355734	0.006113965532996667	2.588197382735414	0	0.9399999999999999	0	44.86054793296888	-10.00022557288395	0	60.09336727678613	1.048827117590136	-5.000014570929242	0	0	44.86054793296888	-10.00022557288395	0	60.09336727678613	1.048827117590136	-5.000014570929242	0	0	-0.008124531131693443	-0.0006626200635311823	-0.00282508720922236	0.1427863305814863	-0.9852289922993172	-0.1387159433292957	1.282654567180938	44.99984468454839	0	0	0	-14.17395934443304	0	75.09782246123724	44.99984468454839	0	0
0.62	0.008620120929604284	0.002229070827403687	2.578246195957485	0	0.9399999999999999	0	44.86159657166975	-10.00022157142966	0	60.09266616083266	1.04881488080831	-5.000014260088376	0	0	44.86159657166975	-10.00022157142966	0	60.09266616083266	1.04881488080831	-5.000014260088376	0	0	-0.01230530743949027	-0.001555796626872032	-0.001433037101972221	0.2355206755763373	-1.179470463856621	-0.2754536233737815	2.738206715735921	44.99984704606165	0	0	0	-14.17775924389983	0	75.09708819091135	44.99984704606165	0	0
0.63	0.0003476189279675053	0.001996139016681587	2.574329721943792	0	0.9399999999999999	0	44.86228261802606	-10.0002177667631	0	60.0923049098135	1.0488085757886	-5.000013939948733	0	0	44.86228261802606	-10.0002177667631	0	60.0923049098135	1.0488085757886	-5.000013939948733	0	0	0.001484186631219533	-0.000607210305102541	0.001607886828516933	0.2339770230658086	-1.182410378702175	-0.2715105033901055	2.735769620259218	44.99984913675142	0	0	0	-14.1798377917152	0	75.09660781352726	44.99984913675142	0	0
0.64	0.01028574653978603	-0.003887618300057294	2.588109866749671	0	0.9399999999999999	0	44.86505665780165	-10.00020408834943	0	60.09083814975962	1.048782975996323	-5.000012836460114	0	0	44.86505665780165	-10.00020408834943	0	60.09083814975962	1.048782975996323	-5.000012836460114	0	0	-0.01710627908241337	-0.002451878223692349	-0.003718863093371707	0.2447653896899748	-1.169725491951028	-0.2866278285021452	2.727702396945916	44.99985689073989	0	0	0	-14.18848617537367	0	75.09466539853857	44.99985689073989	0	0
0.65	0.008401612112531097	0.00105614542117809	2.576284414354261	0	0.9399999999999999	0	44.8659425631944	-10.00020092795864	0	60.09024259742156	1.048772581647156	-5.000012597092852	0	0	44.8659425631944	-10.00020092795864	0	60.09024259742156	1.048772581647156	-5.000012597092852	0	0	-0.01209267641241023	0.0004004430639325693	0.001120806042661415	0.1955259604868172	-0.9705617819500436	0.04725144388686334	3.784001690746538	44.99985879052247	0	0	0	-14.1917454436355	0	75.09404507602727	44.99985879052247	0	0
0.66	0.002580522896948555	0.002083644839551005	2.581361493246618	0	0.9399999999999999	0	44.86596831667265	-10.00020079264417	0	60.09022904969301	1.048772345194686	-5.00001258589006	0	0	44.86596831667265	-10.00020079264417	0	60.09022904969301	1.048772345194686	-5.00001258589006	0	0	-0.02586296906727322	-0.009691945727681856	-0.005075726442698258	0.2628244305413247	-1.012284088780758	-0.02231336499343257	4.544239064499217	44.99985886583751	0	0	0	-14.19182477702387	0	75.09402704314618	44.99985886583751	0	0
0.67	-0.01031197395462624	0.007864772989983018	2.560853452048529	0	0.9399999999999999	0	44.86629063454223	-10.00019926122812	0	60.09005744663521	1.048769350156321	-5.00001246382717	0	0	44.86629063454223	-10.00019926122812	0	60.09005744663521	1.048769350156321	-5.00001246382717	0	0	0.0196712411391573	0.0001072559122231976	0.003258149510501223	0.1950272494561084	-1.044375339343647	-0.005775652123185621	4.60113041348707	44.9998597420273	0	0	0	-14.19284073664415	0	75.09380135237872	44.9998597420273	0	0
0.68	-0.009051562205507277	0.005977772648168817	2.580412396836442	0	0.9399999999999999	0	44.8663145490265	-10.00019913641552	0	60.09004484910751	1.048769130287985	-5.000012453518162	0	0	44.8663145490265	-10.00019913641552	0	60.09004484910751	1.048769130287985	-5.000012453518162	0	0	-0.01662860899083477	-0.01397220897787554	-0.008496247101024066	0.3038347819601608	-1.156379024971782	-0.1021577926062764	5.252125768095116	44.99985981161844	0	0	0	-14.1929145399412	0	75.0937846071818	44.99985981161844	0	0
0.6899999999999999	0.001734934877034424	0.003158894075105571	2.580615807882421	0	0.9399999999999999	0	44.86633943812232	-10.00019900649254	0	60.09003174421693	1.048768901564497	-5.000012442787778	0	0	44.86633943812232	-10.00019900649254	0	60.09003174421693	1.048768901564497	-5.000012442787778	0	0	-0.02000000275115292	-0.007056339585506766	-0.003912163320458167	0.296284468311048	-1.188686847448505	-0.1404294348674251	5.678380919305166	44.9998598840603	0	0	0	-14.19299133030141	0	75.09376717955072	44.9998598840603	0	0
0.7	0.004448534977786437	0.001276546894982879	2.57954663017564	0	0.9399999999999999	0	44.86636668486859	-10.00019886429149	0	60.09001740030565	1.048768651216017	-5.000012431045073	0	0	44.86636668486859	-10.00019886429149	0	60.09001740030565	1.048768651216017	-5.000012431045073	0	0	-0.01788663713664499	-0.006497487920980993	-0.003285666288207005	0.2931569705574514	-1.21930405856208	-0.180578180804847	6.094149704138287	44.99985996335518	0	0	0	-14.19307539023215	0	75.09374810106567	44.99985996335518	0	0
0.71	0.008703657714335322	0.002294335626549807	2.577943505542632	0	0.9399999999999999	0	44.867436327352	-10.00019511295941	0	60.08929773322433	1.04875609065593	-5.000012148647476	0	0	44.867436327352	-10.00019511295941	0	60.08929773322433	1.04875609065593	-5.000012148647476	0	0	-0.01332359149888433	-0.001299378230343837	-0.0017509652886362	0.3231624450172487	-1.42127254310975	-0.3450188490743158	7.643208416565563	44.99986222852256	0	0	0	-14.19702762651866	0	75.09299912340016	44.99986222852256	0	0
0.72	-0.008457976259284789	-0.004284445010053354	2.578061113686626	0	0.9399999999999999	0	44.86772075876856	-10.00019379569263	0	60.08914564560917	1.048753436226294	-5.000012044643746	0	0	44.86772075876856	-10.00019379569263	0	60.08914564560917	1.048753436226294	-5.000012044643746	0	0	0.02660762217234716	0.008852741067315411	0.0003365025872921993	0.2896554972198469	-1.428033193273328	-0.3475307954321387	7.655848653410304	44.99986298735934	0	0	0	-14.19793026022678	0	75.09279996115133	44.99986298735934	0	0
0.73	0.01883764793257023	0.002186915951530321	2.578945445707315	0	0.9399999999999999	0	44.86776243849622	-10.00019358159891	0	60.08912369715753	1.048753053153547	-5.000012027062245	0	0	44.86776243849622	-10.00019358159891	0	60.08912369715753	1.048753053153547	-5.000012027062245	0	0	-0.01950767687999704	-0.005258693512053915	-0.0002443091183031577	0.319057117683564	-1.478116081616049	-0.427617281873729	8.505170661119903	44.99986310723806	0	0	0	-14.19805937915736	0	75.09277077652449	44.99986310723806	0	0
0.74	-0.008124507776781286	0.005087759564318278	2.582920201340405	0	0.9399999999999999	0	44.86778509653938	-10.00019346551646	0	60.08911174687959	1.04875284458185	-5.000012017535962	0	0	44.86778509653938	-10.00019346551646	0	60.08911174687959	1.04875284458185	-5.000012017535962	0	0	-0.0210783240277941	-0.01649016135364109	-0.006452455046980049	0.4297715403426059	-1.5988092089487	-0.5030629013098157	9.126489651462945	44.99986317227248	0	0	0	-14.19812965562796	0	75.09275491110066	44.99986317227248	0	0
0.75	0.01245726842154454	0.004517200716445261	2.577773222786954	0	0.9399999999999999	0	44.86782194574417	-10.00019327667874	0	60.08909232106053	1.048752505537348	-5.00001200203958	0	0	44.86782194574417	-10.00019327667874	0	60.08909232106053	1.048752505537348	-5.00001200203958	0	0	-0.02146237215768887	-0.008371639014113768	-0.001274908799990204	0.4876138536704529	-2.083619003513753	-0.2197268304247987	9.948644458519999	44.99986327806695	0	0	0	-14.19824391684417	0	75.09272910886142	44.99986327806695	0	0
0.76	-0.00687827250796047	0.005312911101080225	2.583620963719111	0	0.9399999999999999	0	44.86784493409247	-10.00019315906711	0	60.08908019274891	1.048752293858377	-5.000011992392901	0	0	44.86784493409247	-10.00019315906711	0	60.08908019274891	1.048752293858377	-5.000011992392901	0	0	-0.0246123584645849	-0.01757829595208784	-0.006820065049771925	0.573294512295172	-2.210039990690406	-0.2996931824005318	10.58277011995488	44.99986334398274	0	0	0	-14.19831524457619	0	75.09271301215401	44.99986334398274	0	0
0.77	0.02213868863606637	0.003599181007289752	2.58013204613051	0	0.9399999999999999	0	44.8678848885455	-10.000192954391	0	60.08905914217565	1.048751926456565	-5.000011975602738	0	0	44.8678848885455	-10.000192954391	0	60.08905914217565	1.048751926456565	-5.000011975602738	0	0	-0.02407446321213004	-0.005684991468754245	-0.001873366156347264	0.5095814832917559	-2.285277352548129	-0.3986143712732353	11.50794262971553	44.99986345867419	0	0	0	-14.19843910215447	0	75.09268503558408	44.99986345867419	0	0
